<svg width="48" height="48" viewBox="0 0 12.7 12.7" xmlns="http://www.w3.org/2000/svg"><path style="fill:#6366f1;fill-opacity:1;stroke:none;stroke-width:.168297;stroke-miterlimit:4;stroke-dasharray:none;stroke-opacity:1" d="M0 0h12.7v12.7H0z"/><g style="stroke:#000;stroke-width:.264583;stroke-miterlimit:4;stroke-dasharray:none;stroke-opacity:1"><path style="fill:#f9f9f9;stroke:#000;stroke-width:.264583;stroke-miterlimit:4;stroke-dasharray:none;stroke-opacity:1" d="M2.499.043h7.993V8.39H2.499z" transform="translate(-.133 .48)"/><path d="M7.674 1.207c.081.827-.534 1.497-1.078 2.038-.248.237-.041.039-.17.157a3.755 3.755 0 0 1-.075-.558C6.386 2.13 6.965 1.1 7.473.72c.081.152.148.165.201.486Zm.173 4.27c-.326-.239-.754-.302-1.147-.233l-.152-.996c.622-.616 1.298-1.332 1.334-2.26.015-.59-.073-1.235-.444-1.715-.45.034-.767.57-1.006.904-.394.707-.302 1.566-.15 2.327-.215.252-.511.462-.722.724-.624.61-1.167 1.436-1.06 2.349.048.882.685 1.702 1.553 1.912.33.083.678.091 1.012.026.058.595.272 1.225.024 1.803-.185.423-.737.795-1.146.58-.159-.084-.03-.014-.126-.067.283-.068.529-.274.598-.414.221-.387-.106-.963-.57-.889-.6.013-.845.831-.46 1.24.356.402 1.014.347 1.437.084.48-.312.54-.938.485-1.471-.019-.18-.107-.707-.118-.897.185-.065.055-.015.316-.118.704-.279 1.153-1.127.95-1.885-.083-.388-.276-.77-.608-1.003Zm.148 1.524c.057.527-.279 1.143-.815 1.312-.036-.21-.045-.267-.07-.39-.127-.65-.196-1.32-.294-1.98.43-.044.914.145 1.064.579.065.152.09.316.115.48ZM6.633 8.376c-.673.037-1.323-.422-1.49-1.08-.2-.57-.14-1.225.216-1.72.295-.451.69-.822 1.066-1.203l.145.895c-.79.207-1.324 1.25-.85 1.972.14.202.523.588.731.432-.291-.18-.53-.492-.478-.854-.022-.34.362-.77.701-.846.116.759.25 1.607.365 2.366-.133.027-.27.038-.406.038z" style="stroke:#000;stroke-width:.264583;stroke-miterlimit:4;stroke-dasharray:none;stroke-opacity:1" transform="translate(-.133 .48)"/></g><path style="fill:#ccc;stroke-width:1" d="M.015 7.05h12.693v5.635H.015z"/><path style="fill:#000;stroke-width:.576488" d="M1.308 11.112h10.108v.481H1.308z"/><circle style="fill:#000;stroke-width:1" cx="11.552" cy="8.165" r=".488"/><path style="fill:none;stroke:#000;stroke-width:.264583px;stroke-linecap:butt;stroke-linejoin:miter;stroke-opacity:1" d="M.015 7.05H12.71"/></svg>